<?xml version="1.0" encoding="UTF-8" standalone="no"?>
<!DOCTYPE svg PUBLIC "-//W3C//DTD SVG 1.1//EN" 
  "http://www.w3.org/Graphics/SVG/1.1/DTD/svg11.dtd">
<svg width="28" height="28"
	 xmlns="http://www.w3.org/2000/svg" version="1.1">
 <path d="  M 28,28  L 28,0  L 0,0  L 0,28  Z  M 6,18  L 6,17  L 9,17  L 9,16  L 12,16  L 12,14  L 11,14  L 11,12  L 9,12  L 9,11  L 10,11  L 10,10  L 9,10  L 9,9  L 10,9  L 10,8  L 11,8  L 11,7  L 12,7  L 12,6  L 21,6  L 21,7  L 23,7  L 23,8  L 24,8  L 24,12  L 23,12  L 23,13  L 21,13  L 21,14  L 19,14  L 19,15  L 17,15  L 17,16  L 16,16  L 16,17  L 17,17  L 17,20  L 16,20  L 16,21  L 15,21  L 15,22  L 14,22  L 14,21  L 13,21  L 13,22  L 12,22  L 12,21  L 11,21  L 11,22  L 8,22  L 8,21  L 5,21  L 5,19  L 4,19  L 4,18  Z  " style="fill:rgb(255, 255, 255); fill-opacity:1.000; stroke:none;" />
 <path d="  M 9,18  L 9,20  L 10,20  L 10,19  L 13,19  L 13,18  L 14,18  L 14,17  L 12,17  L 12,18  Z  " style="fill:rgb(255, 255, 255); fill-opacity:1.000; stroke:none;" />
 <path d="  M 20,9  L 20,8  L 16,8  L 16,9  L 15,9  L 15,8  L 14,8  L 14,9  L 13,9  L 13,10  L 12,10  L 12,12  L 13,12  L 13,13  L 14,13  L 14,14  L 17,14  L 17,13  L 18,13  L 18,12  L 20,12  L 20,11  L 21,11  L 21,10  L 22,10  L 22,9  Z  " style="fill:rgb(255, 255, 255); fill-opacity:1.000; stroke:none;" />
 <path d="  M 21,10  L 21,11  L 20,11  L 20,12  L 18,12  L 18,13  L 17,13  L 17,14  L 14,14  L 14,13  L 13,13  L 13,12  L 12,12  L 12,10  L 13,10  L 13,9  L 14,9  L 14,8  L 15,8  L 15,9  L 16,9  L 16,8  L 20,8  L 20,9  L 22,9  L 22,10  Z  M 13,18  L 13,19  L 10,19  L 10,20  L 9,20  L 9,18  L 12,18  L 12,17  L 14,17  L 14,18  Z  M 6,18  L 4,18  L 4,19  L 5,19  L 5,21  L 8,21  L 8,22  L 11,22  L 11,21  L 12,21  L 12,22  L 13,22  L 13,21  L 14,21  L 14,22  L 15,22  L 15,21  L 16,21  L 16,20  L 17,20  L 17,17  L 16,17  L 16,16  L 17,16  L 17,15  L 19,15  L 19,14  L 21,14  L 21,13  L 23,13  L 23,12  L 24,12  L 24,8  L 23,8  L 23,7  L 21,7  L 21,6  L 12,6  L 12,7  L 11,7  L 11,8  L 10,8  L 10,9  L 9,9  L 9,10  L 10,10  L 10,11  L 9,11  L 9,12  L 11,12  L 11,14  L 12,14  L 12,16  L 9,16  L 9,17  L 6,17  Z  " style="fill:rgb(0, 0, 0); fill-opacity:1.000; stroke:none;" />
</svg>
